<?xml version="1.0" standalone="no"?>
<!DOCTYPE svg PUBLIC "-//W3C//DTD SVG 20010904//EN"
 "http://www.w3.org/TR/2001/REC-SVG-20010904/DTD/svg10.dtd">
<svg version="1.0" xmlns="http://www.w3.org/2000/svg"
 width="1874.000000pt" height="1874.000000pt" viewBox="0 0 1874.000000 1874.000000"
 preserveAspectRatio="xMidYMid meet">
<metadata>
Created by potrace 1.14, written by Peter Selinger 2001-2017
</metadata>
<g transform="translate(0.000000,1874.000000) scale(0.100000,-0.100000)"
fill="#000000" stroke="none">
<path d="M8999 18716 c-2 -2 -69 -6 -149 -10 -80 -4 -163 -9 -185 -11 -35 -3
-98 -9 -220 -20 -65 -6 -171 -17 -195 -20 -14 -2 -79 -11 -145 -20 -66 -9
-131 -18 -145 -20 -14 -2 -70 -11 -125 -20 -112 -17 -391 -71 -445 -85 -19 -5
-51 -12 -70 -15 -19 -3 -53 -11 -75 -17 -22 -5 -51 -12 -65 -15 -55 -9 -271
-68 -543 -147 -160 -46 -584 -194 -692 -240 -16 -8 -104 -44 -195 -81 -388
-160 -802 -369 -1180 -597 -204 -122 -171 -101 -379 -239 -149 -99 -361 -247
-396 -276 -5 -5 -48 -38 -95 -73 -468 -353 -1005 -856 -1378 -1288 -299 -347
-542 -666 -776 -1021 -81 -123 -306 -488 -306 -496 0 -2 -13 -27 -30 -55 -87
-148 -282 -535 -384 -764 -131 -291 -274 -667 -361 -942 -25 -82 -50 -160 -55
-174 -24 -68 -146 -528 -164 -620 -2 -14 -14 -70 -26 -125 -21 -98 -24 -113
-34 -168 -3 -15 -7 -35 -10 -45 -3 -9 -7 -33 -10 -52 -3 -19 -10 -58 -15 -87
-6 -29 -13 -74 -17 -100 -3 -26 -8 -57 -10 -68 -7 -36 -43 -309 -49 -370 -3
-33 -8 -67 -10 -75 -2 -8 -6 -49 -9 -90 -3 -41 -9 -102 -12 -135 -33 -346 -37
-1059 -9 -1415 12 -142 25 -287 30 -340 16 -143 50 -396 61 -453 2 -12 6 -39
9 -62 8 -59 24 -147 46 -258 10 -53 21 -110 24 -125 7 -38 10 -50 44 -202 18
-74 34 -146 37 -160 2 -14 9 -38 14 -55 5 -16 21 -73 34 -125 51 -198 191
-647 207 -665 5 -5 9 -16 9 -26 0 -9 9 -38 20 -65 10 -27 42 -110 70 -184 28
-74 57 -148 64 -165 8 -16 37 -86 66 -155 71 -170 273 -591 348 -725 15 -27
48 -86 72 -130 113 -209 399 -665 520 -830 20 -27 74 -102 120 -165 82 -112
357 -459 420 -530 17 -19 55 -62 83 -94 498 -570 1111 -1116 1732 -1542 88
-60 185 -125 215 -144 30 -19 57 -38 58 -42 2 -5 8 -8 13 -8 5 0 40 -20 79
-45 181 -116 494 -292 745 -418 127 -64 323 -157 330 -157 2 0 46 -20 99 -45
53 -25 100 -45 105 -45 4 0 21 -6 37 -14 183 -87 689 -266 1035 -364 179 -51
393 -107 441 -116 15 -2 31 -7 35 -9 5 -3 24 -8 43 -11 19 -3 87 -16 150 -30
136 -29 422 -80 570 -101 58 -8 121 -17 140 -19 30 -5 89 -11 277 -31 42 -5
107 -11 213 -20 58 -4 213 -13 365 -20 272 -13 816 -2 1055 20 25 2 81 7 125
10 44 3 91 8 105 10 14 3 54 7 90 10 36 3 76 8 90 10 14 2 66 8 115 15 96 12
114 14 185 26 25 4 54 8 65 9 11 2 48 8 82 14 35 6 73 13 85 15 29 5 200 37
213 40 18 5 80 17 95 20 50 8 430 100 500 121 25 7 124 36 220 64 363 106 783
259 1095 401 33 15 94 42 135 60 112 49 415 202 589 297 330 181 712 424 1026
653 127 92 449 347 531 419 22 20 69 61 104 91 34 30 72 63 83 73 256 223 672
653 922 952 28 33 53 62 56 65 6 5 184 230 226 286 242 319 438 611 634 947
54 93 99 170 99 172 0 2 14 28 31 57 51 86 273 533 334 673 31 72 63 144 71
160 55 122 201 513 271 725 117 358 253 886 308 1195 19 108 55 327 60 365 3
25 8 56 10 70 3 14 7 48 10 75 3 28 8 61 10 75 2 14 7 50 10 80 3 30 9 89 14
130 5 41 9 82 9 90 0 15 10 143 17 215 23 245 23 1072 0 1250 -2 17 -6 75 -10
130 -3 55 -7 111 -9 125 -3 14 -7 61 -11 104 -4 43 -8 86 -10 95 -1 9 -6 45
-10 81 -5 36 -9 72 -10 80 -1 8 -5 42 -10 75 -4 33 -9 67 -11 77 -1 9 -6 38
-10 65 -3 26 -8 57 -10 68 -19 103 -45 246 -49 270 -3 17 -17 84 -31 150 -14
66 -27 129 -30 140 -3 17 -68 282 -79 325 -59 224 -215 720 -260 825 -7 17
-18 46 -25 65 -7 19 -16 44 -20 55 -5 11 -21 52 -35 90 -72 187 -202 479 -321
720 -85 172 -223 428 -309 574 -466 787 -1005 1460 -1684 2101 -128 120 -138
130 -225 203 -27 23 -54 47 -60 53 -13 12 -131 112 -201 170 -28 23 -124 98
-215 167 -91 69 -186 142 -212 162 -156 119 -641 429 -903 576 -291 163 -666
345 -965 468 -69 29 -134 56 -145 61 -45 21 -361 135 -515 186 -221 73 -599
181 -767 219 -282 64 -504 107 -718 141 -16 2 -55 9 -85 14 -30 5 -79 12 -109
15 -30 4 -61 8 -70 10 -9 1 -47 6 -84 10 -37 3 -76 8 -85 10 -9 1 -53 6 -97 9
-44 4 -91 8 -105 11 -14 2 -74 7 -135 11 -60 4 -135 9 -165 11 -66 5 -886 13
-891 9z"/>
</g>
</svg>
